# xmcd
#
# Track frame offsets:
#	150
#	10259
#	27114
#	43261
#	56947
#	72800
#	90161
#	104357
#	115926
#	131562
#	134485
#	153240
#	165828
#	181820
#	194470
#
# Disc length: 2847 seconds
# Revision: 0
# Processed by: cddbd v1.5.2PL0 Copyright (c) Steve Scherf et al.
# Submitted via: dBpowerAMP V12.0
#
DISCID=c10b1d0f
DTITLE=The Brombies - From The Piney Hills (of Hollywood)
DYEAR=2017
DGENRE=Country
TTITLE0=Come To Me
TTITLE1=All Across Oklahoma
TTITLE2=Every Step of The Way
TTITLE3=By and By
TTITLE4=Piney Hills
TTITLE5=Lonely Face
TTITLE6=Old Heaven's Door
TTITLE7=Are You Still Lonesome
TTITLE8=Slow Down Baby
TTITLE9=Old Rough and Ready
TTITLE10=Whisper Sweet Goodbye
TTITLE11=Let's Not Wait
TTITLE12=The Wanderer
TTITLE13=Bucky's Bounce
TTITLE14=Amen
EXTD=
EXTT0=
EXTT1=
EXTT2=
EXTT3=
EXTT4=
EXTT5=
EXTT6=
EXTT7=
EXTT8=
EXTT9=
EXTT10=
EXTT11=
EXTT12=
EXTT13=
EXTT14=
PLAYORDER=
